<svg width="1057" height="716" viewBox="0 0 1057 716" fill="none" xmlns="http://www.w3.org/2000/svg">
<rect width="1057" height="716" fill="#17181D"/>
<path d="M107.824 112.632V123.288H64.192V157.128H99.616V167.784H64.192V213H51.088V112.632H107.824ZM195.651 170.52C195.651 173.016 195.507 175.656 195.219 178.44H132.147C132.627 186.216 135.267 192.312 140.067 196.728C144.963 201.048 150.867 203.208 157.779 203.208C163.443 203.208 168.147 201.912 171.891 199.32C175.731 196.632 178.419 193.08 179.955 188.664H194.067C191.955 196.248 187.731 202.44 181.395 207.24C175.059 211.944 167.187 214.296 157.779 214.296C150.291 214.296 143.571 212.616 137.619 209.256C131.763 205.896 127.155 201.144 123.795 195C120.435 188.76 118.755 181.56 118.755 173.4C118.755 165.24 120.387 158.088 123.651 151.944C126.915 145.8 131.475 141.096 137.331 137.832C143.283 134.472 150.099 132.792 157.779 132.792C165.267 132.792 171.891 134.424 177.651 137.688C183.411 140.952 187.827 145.464 190.899 151.224C194.067 156.888 195.651 163.32 195.651 170.52ZM182.115 167.784C182.115 162.792 181.011 158.52 178.803 154.968C176.595 151.32 173.571 148.584 169.731 146.76C165.987 144.84 161.811 143.88 157.203 143.88C150.579 143.88 144.915 145.992 140.211 150.216C135.603 154.44 132.963 160.296 132.291 167.784H182.115ZM208.051 173.256C208.051 165.192 209.683 158.136 212.947 152.088C216.211 145.944 220.675 141.192 226.339 137.832C232.099 134.472 238.483 132.792 245.491 132.792C252.403 132.792 258.403 134.28 263.491 137.256C268.579 140.232 272.371 143.976 274.867 148.488V134.088H288.115V213H274.867V198.312C272.275 202.92 268.387 206.76 263.203 209.832C258.115 212.808 252.163 214.296 245.347 214.296C238.339 214.296 232.003 212.568 226.339 209.112C220.675 205.656 216.211 200.808 212.947 194.568C209.683 188.328 208.051 181.224 208.051 173.256ZM274.867 173.4C274.867 167.448 273.667 162.264 271.267 157.848C268.867 153.432 265.603 150.072 261.475 147.768C257.443 145.368 252.979 144.168 248.083 144.168C243.187 144.168 238.723 145.32 234.691 147.624C230.659 149.928 227.443 153.288 225.043 157.704C222.643 162.12 221.443 167.304 221.443 173.256C221.443 179.304 222.643 184.584 225.043 189.096C227.443 193.512 230.659 196.92 234.691 199.32C238.723 201.624 243.187 202.776 248.083 202.776C252.979 202.776 257.443 201.624 261.475 199.32C265.603 196.92 268.867 193.512 271.267 189.096C273.667 184.584 274.867 179.352 274.867 173.4ZM326.244 144.888V191.4C326.244 195.24 327.06 197.976 328.692 199.608C330.324 201.144 333.156 201.912 337.188 201.912H346.836V213H335.028C327.732 213 322.26 211.32 318.612 207.96C314.964 204.6 313.14 199.08 313.14 191.4V144.888H302.916V134.088H313.14V114.216H326.244V134.088H346.836V144.888H326.244ZM432.697 134.088V213H419.593V201.336C417.097 205.368 413.593 208.536 409.081 210.84C404.665 213.048 399.769 214.152 394.393 214.152C388.249 214.152 382.729 212.904 377.833 210.408C372.937 207.816 369.049 203.976 366.169 198.888C363.385 193.8 361.993 187.608 361.993 180.312V134.088H374.953V178.584C374.953 186.36 376.921 192.36 380.857 196.584C384.793 200.712 390.169 202.776 396.985 202.776C403.993 202.776 409.513 200.616 413.545 196.296C417.577 191.976 419.593 185.688 419.593 177.432V134.088H432.697ZM467.926 146.904C470.23 142.392 473.494 138.888 477.718 136.392C482.038 133.896 487.27 132.648 493.414 132.648V146.184H489.958C475.27 146.184 467.926 154.152 467.926 170.088V213H454.822V134.088H467.926V146.904ZM580.541 170.52C580.541 173.016 580.397 175.656 580.109 178.44H517.037C517.517 186.216 520.157 192.312 524.957 196.728C529.853 201.048 535.757 203.208 542.669 203.208C548.333 203.208 553.037 201.912 556.781 199.32C560.621 196.632 563.309 193.08 564.845 188.664H578.957C576.845 196.248 572.621 202.44 566.285 207.24C559.949 211.944 552.077 214.296 542.669 214.296C535.181 214.296 528.461 212.616 522.509 209.256C516.653 205.896 512.045 201.144 508.685 195C505.325 188.76 503.645 181.56 503.645 173.4C503.645 165.24 505.277 158.088 508.541 151.944C511.805 145.8 516.365 141.096 522.221 137.832C528.173 134.472 534.989 132.792 542.669 132.792C550.157 132.792 556.781 134.424 562.541 137.688C568.301 140.952 572.717 145.464 575.789 151.224C578.957 156.888 580.541 163.32 580.541 170.52ZM567.005 167.784C567.005 162.792 565.901 158.52 563.693 154.968C561.485 151.32 558.461 148.584 554.621 146.76C550.877 144.84 546.701 143.88 542.093 143.88C535.469 143.88 529.805 145.992 525.101 150.216C520.493 154.44 517.853 160.296 517.181 167.784H567.005ZM625.774 214.296C619.726 214.296 614.302 213.288 609.502 211.272C604.702 209.16 600.91 206.28 598.126 202.632C595.342 198.888 593.806 194.616 593.518 189.816H607.054C607.438 193.752 609.262 196.968 612.526 199.464C615.886 201.96 620.254 203.208 625.63 203.208C630.622 203.208 634.558 202.104 637.438 199.896C640.318 197.688 641.758 194.904 641.758 191.544C641.758 188.088 640.222 185.544 637.15 183.912C634.078 182.184 629.326 180.504 622.894 178.872C617.038 177.336 612.238 175.8 608.494 174.264C604.846 172.632 601.678 170.28 598.99 167.208C596.398 164.04 595.102 159.912 595.102 154.824C595.102 150.792 596.302 147.096 598.702 143.736C601.102 140.376 604.51 137.736 608.926 135.816C613.342 133.8 618.382 132.792 624.046 132.792C632.782 132.792 639.838 135 645.214 139.416C650.59 143.832 653.47 149.88 653.854 157.56H640.75C640.462 153.432 638.782 150.12 635.71 147.624C632.734 145.128 628.702 143.88 623.614 143.88C618.91 143.88 615.166 144.888 612.382 146.904C609.598 148.92 608.206 151.56 608.206 154.824C608.206 157.416 609.022 159.576 610.654 161.304C612.382 162.936 614.494 164.28 616.99 165.336C619.582 166.296 623.134 167.4 627.646 168.648C633.31 170.184 637.918 171.72 641.47 173.256C645.022 174.696 648.046 176.904 650.542 179.88C653.134 182.856 654.478 186.744 654.574 191.544C654.574 195.864 653.374 199.752 650.974 203.208C648.574 206.664 645.166 209.4 640.75 211.416C636.43 213.336 631.438 214.296 625.774 214.296Z" fill="#EFEFEF" fill-opacity="0.15"/>
</svg>
